# xmcd
#
# Track frame offsets:
#	150
#	13732
#	27637
#	41247
#	52022
#	68927
#	81780
#	94525
#	109262
#	122630
#	140120
#	150385
#	163945
#	178700
#	196070
#	214245
#	233712
#
# Disc length: 3370 seconds
#
# Revision: 0
# Processed by: cddbd v1.5PL3 Copyright (c) Steve Scherf et al.
# Submitted via: audiograbber 1.82.02
#
DISCID=f20d2811
DTITLE=Marvin Gaye - Every Great Motown Hit of Marvin Gaye
DYEAR=2000
DGENRE=Soul
TTITLE0=How Sweet It Is (To Be Loved By You)
TTITLE1=Your Precious Love (with Tammi Terrell)
TTITLE2=Ain't That Peculiar
TTITLE3=If I Could Build My Whole World Around You (with Tammi Terrell)
TTITLE4=That's The Way Love Is
TTITLE5=You're All I Need To Get By (with Tammi Terrell)
TTITLE6=I'll Be Doggone
TTITLE7=I Heard It Through The Grapevine
TTITLE8=Too Busy Thinking About My Baby
TTITLE9=What's Going On
TTITLE10=Ain't Nothing Like The Real Thing (with Tammi Terrell)
TTITLE11=Inner City Blues (Make Me Wanna Holler)
TTITLE12=Mercy Mercy Me (The Ecology)
TTITLE13=Trouble Man
TTITLE14=Let's Get It On
TTITLE15=Distant Lover
TTITLE16=Got To Give It Up (Part 1)
EXTD=
EXTT0=
EXTT1=
EXTT2=
EXTT3=
EXTT4=
EXTT5=
EXTT6=
EXTT7=
EXTT8=
EXTT9=
EXTT10=
EXTT11=
EXTT12=
EXTT13=
EXTT14=
EXTT15=
EXTT16=
PLAYORDER=
